<?xml version="1.0" encoding="UTF-8"?>
<svg viewBox="0 0 424.92142 311.86362" xmlns="http://www.w3.org/2000/svg" xmlns:xlink="http://www.w3.org/1999/xlink">
 <defs>
  <linearGradient id="a">
   <stop stop-color="#666" offset="0"/>
   <stop stop-color="#999" offset="1"/>
  </linearGradient>
  <linearGradient id="b">
   <stop stop-color="#e6e6e6" offset="0"/>
   <stop stop-color="#f9f9f9" offset="1"/>
  </linearGradient>
  <linearGradient id="c">
   <stop stop-color="#d40000" offset="0"/>
   <stop stop-color="#500" offset="1"/>
  </linearGradient>
  <linearGradient id="p" x1="373.76" x2="463.67" gradientUnits="userSpaceOnUse">
   <stop stop-color="#a00" offset="0"/>
   <stop stop-color="#2b0000" offset="1"/>
  </linearGradient>
  <linearGradient id="o" x1="385.83" x2="458.27" gradientUnits="userSpaceOnUse">
   <stop stop-color="#f00" offset="0"/>
   <stop stop-color="#500" offset="1"/>
  </linearGradient>
  <linearGradient id="i" x1="517.5" x2="487.86" y1="142.7" y2="87.879" gradientUnits="userSpaceOnUse">
   <stop stop-color="#ccc" offset="0"/>
   <stop stop-color="#ececec" offset="1"/>
  </linearGradient>
  <linearGradient id="h" x1="268.61" x2="268.65" y1="217.23" y2="315.65" gradientUnits="userSpaceOnUse">
   <stop stop-color="#ccc" offset="0"/>
   <stop stop-color="#f2f2f2" offset=".51321"/>
   <stop stop-color="#ccc" offset="1"/>
  </linearGradient>
  <linearGradient id="g" x1="315.67" x2="149" y1="221.01" y2="442.23" gradientUnits="userSpaceOnUse">
   <stop stop-color="#ffe680" offset="0"/>
   <stop stop-color="#ffe680" stop-opacity="0" offset="1"/>
  </linearGradient>
  <linearGradient id="e" x1="353.05" x2="358.98" gradientUnits="userSpaceOnUse">
   <stop stop-color="#666" offset="0"/>
   <stop stop-color="#333" offset="1"/>
  </linearGradient>
  <linearGradient id="d" x1="352.29" x2="358.61" gradientUnits="userSpaceOnUse">
   <stop stop-color="#333" offset="0"/>
   <stop offset="1"/>
  </linearGradient>
  <linearGradient id="n" x1="343.96" x2="394.21" y1="348.79" y2="231.36" gradientUnits="userSpaceOnUse" xlink:href="#c"/>
  <linearGradient id="m" x1="583.75" x2="546.07" y1="71.272" y2="80.022" gradientUnits="userSpaceOnUse" xlink:href="#b"/>
  <linearGradient id="l" x1="619.11" x2="630.36" y1="74.129" y2="47.701" gradientUnits="userSpaceOnUse" xlink:href="#b"/>
  <linearGradient id="k" x1="591.79" x2="582.5" y1="119.13" y2="98.415" gradientUnits="userSpaceOnUse" xlink:href="#a"/>
  <linearGradient id="j" x1="654.46" x2="655.89" y1="103.06" y2="84.308" gradientUnits="userSpaceOnUse" xlink:href="#a"/>
  <linearGradient id="f" x1="267.19" x2="320.47" y1="203.08" y2="254.59" gradientTransform="matrix(.98646 -.16399 .16399 .98646 -29.202 60.208)" gradientUnits="userSpaceOnUse" xlink:href="#c"/>
 </defs>
 <g transform="translate(-59.672 -162.94)">
  <path d="m415.31 361c-30.13 0-55.72 7.0793-65.031 16.906h-3.7812v8.875h0.0625c1.0104 13.525 31.392 24.375 68.75 24.375s67.708-10.85 68.719-24.375h0.0312v-0.25c7e-3 -0.14713 0.0312-0.28976 0.0312-0.4375 0-0.14424-0.0246-0.29384-0.0312-0.4375v-7.75h-3.7188c-9.3063-9.83-34.895-16.906-65.031-16.906z" fill="url(#p)" stroke="#000" stroke-linecap="round" stroke-linejoin="round"/>
  <path transform="matrix(1.1819 0 0 1.1819 -77.334 -63.103)" d="m475.02 373.29c0 11.716-26.062 21.213-58.21 21.213s-58.21-9.4975-58.21-21.213 26.062-21.213 58.21-21.213 58.21 9.4975 58.21 21.213z" fill="url(#o)" stroke="#000" stroke-linecap="round" stroke-linejoin="round" stroke-width=".84609"/>
  <path d="m345 195.93c18.952 13.034 51.506 29.798 65.074 64.892 9.3366 24.15 11.726 60.265 11.355 112.97-3.8831 4.0258-9.822 3.4046-12.857 0 0.17997-51.137-0.67708-83.774-9.8288-104.64-18.851-42.971-37.469-47.636-63.028-66.079z" fill="url(#n)" stroke="#000"/>
  <g transform="translate(-488.57 150.71)">
   <path transform="translate(86.875 161.41)" d="m563.21 35.737c12.679 13.036 58.571 56.786 68.214 64.286-40-10.179-73.75 17.857-108.75 33.393-12.143-17.321-39.464-63.75-50.714-78.214 16.25-10.179 58.571-46.429 91.25-19.464z" fill="url(#m)"/>
   <path transform="translate(86.875 161.41)" d="m563.21 35.737c12.679 13.036 58.571 56.786 68.214 64.286 24.286-33.036 69.286-19.464 99.821-26.786-20-15-64.286-43.75-84.643-58.036-26.964 5.5357-65.536-8.3929-83.393 20.536z" fill="url(#l)"/>
   <path transform="translate(86.875 161.41)" d="m523.21 133.06-3.2143 26.607c44.917-24.261 70.06-38.036 102.68-38.571l7.1428-21.071c-40.254-9.8335-74.107 18.81-106.61 33.036z" fill="url(#k)" stroke="#a00"/>
   <path transform="translate(86.875 161.41)" d="m626.96 108.95 18.036 6.6072c25.239-20.736 47.083-14.881 92.321-18.036-2.4317-7.3201-5.2106-14.223-5.3571-24.286-36.376 6.6448-88.123-5.0295-105 35.714z" fill="url(#j)"/>
   <path transform="translate(86.875 161.41)" d="m519.82 158.42 2.6786-25-50-78.571c-6.6111 3.2718-4.9007 11.597-6.9643 17.143z" fill="url(#i)"/>
   <g transform="matrix(.81564 0 0 .81564 548.24 175.49)">
    <path d="m330.084,70.199c3.078-.745 1.922,2.744 5,2 1.64,2.14-2.549,4.854-1,9.999l-1.833-.5-1.167,1.5c-2.235-.432-.405-4.929-1-7l.444-2.723-2.444-1.276v-1l1.5.5 .5-1.5z"/>
    <path d="m332.917,83.698 1.167-1.5c6.869,4.129 12.841,9.155 18.997,13.998 .697,5.029-1.696,6.97-1,11.998-30.646,2.781-58.67,6.19-87.988,9.999-9.23,1.199-19.859,1.675-27.996,3.999-12.092,3.456-16.467,12.16-30.996,13.999-7.099.897-12.355-1.795-19.998-1-9.243.961-20.285,7.338-29.997,10.998-28.904,10.896-59.091,22.764-84.989,35.996-7.776-7.976-12.236-18.503-17.998-27.997-16.69-27.502-35.008-55.856-51.993-83.988-.895-3.229 3.261-1.405 4-3l1.5.5 1.5-.5c20.867,34.459 42.363,68.289 63.992,101.986 .595-2.07-1.236-6.567 1-6.999l1.167,1.5 1.833-.5c1.327,4.385-1.89,9.365-1,9.999 36.686-17.974 64.597-44.724 119.984-43.995-.848-11.512 5.246-16.084 8.998-22.997-1.582-.083-3.812.481-3.998-1l.5-1.499-.5-1.5c.851.185.942-.39 1-1l1.355-1.214-.355-1.786c3.864.136 3.942,4.057 6.998,5l1.215,1.356 1.785-.356c-.668,4.331-4.627,5.371-5,9.998 4.711-.289 7.08-2.919 12.998-1.999 3.942,1.058 3.812,6.188 6,8.998 19.527-24.133 67.58-19.74 109.986-20.997-1.188-5.811-4.154-9.844-4-16.997l1.833.5z"/>
    <path d="m5.958,65.7-1.833.5c.083-1.583-.481-3.814 1-4l1.167,1.5 1.833-.5c-.083,1.583.481,3.812-1,4l-1.167-1.5z"/>
    <path d="m332.25 81.698 0.666 2" fill="none" stroke="#000" stroke-linecap="round" stroke-width="3.1619"/>
    <path d="m5.625,67.7c.04-.667.184-1.333.333-2" fill="none" stroke="#000" stroke-linecap="round" stroke-width="3.0818"/>
    <path d="m6.292,63.7c.844-4.938 1.585-11.268 6.732-13.6" fill="none" stroke="#000" stroke-linecap="round" stroke-width="3.3387"/>
    <path d="m13.024 50.102c31.278-20.756 75.054-53.726 111.44-23.112" fill="none" stroke="#000" stroke-linecap="round" stroke-width="2.2807"/>
    <path d="m124.47 26.99c21.533-35.956 68.595-18.112 102.97-25.742 33.809 23.763 69.094 45.902 102.14 70.452" fill="none" stroke="#000" stroke-linecap="round" stroke-width="2.328"/>
    <path d="m209.31 104.55c27.562-37.675 80.914-24.114 121.22-31.075" fill="none" stroke="#000" stroke-linecap="round" stroke-width="3.9899"/>
    <path d="m124.47 26.99c26.053 23.891 50.821 49.292 76.99 72.99" fill="none" stroke="#000" stroke-linecap="round" stroke-width="3.0382"/>
    <path d="m13.024 50.102c22.017 30.93 40.332 64.812 62.092 96.088" fill="none" stroke="#000" stroke-linecap="round" stroke-width="2.6156"/>
    <path d="m75.117 146.19c39.787-18.125 77.92-48.677 124.48-42.494" fill="none" stroke="#000" stroke-linecap="round" stroke-width="2.9805"/>
    <path d="m75.117,146.189c-.556,5.836-.93,11.693-1.833,17.498" fill="none" stroke="#000" stroke-linecap="round" stroke-width="3.7282"/>
   </g>
   <g font-family="eufm10" font-size="24" letter-spacing="0" word-spacing="0">
    <path d="m576.04962,226.67415-.26268-.15111c-.12532-.37237-.20491-.71187-.24155-1.01623-.0393-.30767-.003-.61001.12303-.91345s.3616-.56208.71127-.77613c.18147-.11108.42952-.2219.75456-.33532-.66028-.93624-1.32291-1.87037-1.98789-2.80239-.19176-.26875-.426-.51931-.70494-.7499s-.59457-.404-.94946-.5189c-.35213-.12148-.73938-.15239-1.16253-.0941-.42582.0549-.88259.22772-1.35574.50767-.3925.23225-.66367.5161-.78974.84296s-.0494.58936.19726.80391c.0617.0536.1696.10243.32057.14759s.29028.0793.41899.10187l.60145.0933c.90891.12613 1.38031.26443 1.48754.38795 .24268.27955.3085.64158.25106,1.05976-.0536.41574-.16001.7997-.29716,1.13816l-.29726.0433c.0907-.52418.0997-.94826-.13538-1.186-.10208-.10322-.4777-.22772-1.18405-.35373-.70047-.10921-1.21008-.24784-1.46385-.43733-.27648-.20645-.47152-.45957-.55077-.77516s-.0576-.66219.0877-1.03852 .39915-.74912.72862-1.10354c.3264-.35753.69736-.65913 1.09271-.89483 1.04885-.62528 1.97268-.87927 2.76775-.72693 .40619.0778.7777.26105 1.11758.5487 .20852-.7542.56627-1.50622 1.0683-2.2542 .50753-.75146 1.13689-1.37121 1.87051-1.84693 .50194-.32547.89892-.43024 1.19104-.31319 .29551.10982.58833.342.88082.69514 .14961.16934.29725.26929.44256.30006s.35668-.0449.61859-.2169c.12931-.0849.28068-.21142.45451-.37971l.0966-.0958 .19368.12176c-.0537.0646-.10717.13149-.16049.20062-.29673.38326-.58701.83503-.8677,1.35318-.3334.60786-.43378,1.01224-.30983,1.21875 .0565.0942.14916.17985.27772.25694 .13389.0736.27529.13456.42413.18293 .152.0413.31315.0789.48355.11278 .65358.13897 1.0846.37542 1.29192.71283 .21832.35539.29742.82621.24276,1.40984s-.23861,1.16074-.54787,1.72671c-.30409.56253-.70246,1.00683-1.19798,1.33132-.15171.0993-.38958.20934-.71233.3274-.31775.11483-.69714.24038-1.13723.37354l-.78012.23446c.49244.72166 1.00238,1.35518 1.52816,1.90103-.0733.13575-.19746.35817-.36989.66255l-.0767.13867c-.15839.25566-.30627.51888-.44104.78821l-.38435.0574c-.009-.25047-.20595-.72054-.5956-1.40776-.38724-.68374-.73785-1.25156-1.05445-1.70215-.40711.14121-.67237.23687-.82703.29712-.15716.0568-.28924.11917-.39781.18743-.16086.10112-.28154.22353-.36303.36729s-.13468.29823-.16063.46373c-.0226.16329-.026.33775-.01.52317s.0348.34149.0521.47027zm2.47675-3.66156 1.16682-.38947c.53664-.18125 1.01777-.35915 1.44285-.53044 .42274-.17482.7357-.33059.9365-.46321 .22138-.1462.41464-.32757.58021-.54402s.2756-.44184.32045-.65416c.0426-.21587.0127-.40622-.0904-.57064-.11206-.17869-.30444-.31909-.57715-.42174-.26745-.10614-.57261-.19013-.91549-.25245-.80122-.11933-1.27641-.3024-1.42565-.54343-.13589-.21942-.13292-.53188.0131-.94052 .14383-.41222.34189-.83489.59448-1.26825-.069.0352-.14712.0612-.23438.078s-.18264.0263-.2861.0283l-.27169-.004c-.22109-.007-.45337-.18867-.69491-.54607-.17677-.29865-.38352-.47186-.62234-.51864s-.56171.0542-.97769.32223c-.3503.22575-.64617.54142-.88244.94361-.23307.39514-.41071.80907-.53125,1.24097s-.17747.80506-.19,1.13254l2.64503,3.90146z" fill="#a00"/>
    <path d="m587.10318,218.07563c-.23847-.60025-.4654-1.08168-.68479-1.44253-.15856-.2608-.37697-.59714-.65321-1.0106s-.45232-.6252-.53191-.63257c-.0129.004-.0333-.005-.0611-.0272s-.0519-.0308-.0724-.0272l-.23274.0265-.37343.0369-.52904.60072-.25267.032c.22047-.48435.40356-.87469.54776-1.17098s.31875-.63221.53053-.99662c.57143.004 1.06812-.0104 1.49039-.0435l.19972.34713 .43599-.74824 .84571-1.41544c.72072.26576 1.24681.29044 1.57343.0806 .0664-.0427.14649-.12112.24029-.23524 .0993-.11765.16195-.18709.18763-.20843l.10582.14546c-.0629.12848-.16464.3212-.30473.57841l-.29045.54152c-.0669.14665-.23272.30573-.49731.47739-.14332.093-.30664.1645-.48995.2144-.18541.0463-.34972.0765-.49301.0905l-.59382.0519-.0464.0927-.39675.81058c.40257.68963.81178,1.37476 1.22763,2.05537 .11329.18544.45926.2729 1.037.26257 .22268-.005.47963-.0245.77103-.0586l1.21625-1.44145 .18486.16775c-.51163.79135-1.01742,1.58444-1.5176,2.37786-.0753.12242-.15056.24493-.2257.36752-.61542.0747-1.39767.10922-2.3471.10088"/>
    <path d="m593.15126,214.18028-.20154-.32483c-.55761-.90212-1.03604-1.92457-1.42991-3.0669 .7631-.94634 1.52742-2.00379 2.29727-3.16422 1.07885-.16016 2.07626-.43569 2.98985-.81981 .32256.41983.59087.80556.8031,1.15878 .46607.77571.79635,1.58475.98946,2.43239-.32423.41444-.57944.74272-.76761.9828l-.71461.87462c-.2857.34675-.54348.64926-.77426.90674s-.51901.57908-.86989.95536c-.66362.0475-1.13607.0747-1.42055.0829s-.58499.002-.90131-.0178zm1.10433-1.53701c.40966.0203.85972.003 1.35078-.0523 .49667-.0586.88685-.17702 1.16921-.35413 .0677-.0425.15025-.19273.24833-.45023 .12288-.26817.17226-.51602.14789-.74432s-.0797-.49445-.18221-.78854c-.11308-.38756-.29869-.79446-.55539-1.22235-.16906-.28178-.35616-.55739-.56107-.82715-.23918.13028-.51279.26067-.82052.39123s-.59606.2477-.86525.35116-.65724.23263-1.17332.4091c-.15049.38753-.19031.76067-.11926,1.11766 .0767.35348.22089.70839.43343,1.06356 .23148.38683.54032.75605.92739,1.10631z"/>
    <path d="m602.02315,212.31848c.39754-.59231.69454-1.0591.88643-1.40426s.27579-.6645.25092-.95971c-.006-.1812-.0571-.38727-.15189-.6186s-.20412-.47956-.35155-.74503c-.1416-.2688-.2864-.51958-.43475-.75227-.1445-.23947-.32057-.523-.52674-.85143-.51649-.82276-.89451-1.30896-1.14587-1.45216-.0824-.0455-.22072-.0803-.41456-.10447-.18803-.0275-.32537-.0168-.41244.0323-.1663.20177-.33223.40431-.49776.60755l-.32585.02c.3813-.63476.76571-1.26409 1.15267-1.88694l.11148-.17971c.40867.0118.90808-.0142 1.50032-.0758 .2144.32644.5243.82008.93561,1.47797 .65811,1.05264 1.18229,1.93897 1.56103,2.66587 .17541.36665.20019.6784.0731.93765l-.49774,1.02045c-.35685.73387-.70794,1.47314-1.05274,2.21672l-.65972.0518m-2.44102-9.08147-.10169.00045c-.2931-.004-.70896-.0463-1.2444-.12952 .20024-.32764.40103-.65348.60229-.97734l.13524-.21728c.41867.0826.84444.1275 1.27712.13609-.22373.39299-.44662.78886-.66856,1.1876z"/>
    <path d="m606.7843,205.88599c-.31064-.31475-.59056-.66491-.83965-1.05043-.35216-.54504-.64121-1.17707-.86628-1.89406 .57531-.62153 1.15468-1.23138 1.73783-1.82951l.60505-.60934c.45483.079.91999.12983 1.39504.15339s.98668.019 1.52294.006c-.83151,1.15424-1.5018,2.09313-2.01709,2.787-.27994.3846-.51219.69649-.69801.93229 .0454.0694.11914.15776.22143.26495 .44458.0276.86937.0315 1.27392.0121 .4124-.0159.80327-.0563 1.17214-.12097 .11654-.0515.2011-.0972.25366-.13732l1.29446-1.07686 .20094.12351c-.7236.83897-1.44272,1.62502-2.1588,2.3508l-.22708.23484c-1.30568-.0215-2.25754-.0637-2.87048-.14613m.51239-1.93397c.2903-.31181.55241-.60151.78576-.87048 .44836-.50692.78911-.94221 1.02209-1.31087-.66935.0533-1.27747.0772-1.82458.0685-.24996-.003-.48706-.0121-.71146-.0287-.20462.0962-.20086.38021.0134.85014 .22031.46706.45865.89763.71477,1.29144z"/>
    <path d="m614.32477,202.5701c-.42215-.49942-.74463-.91859-.96921-1.25633-.42079-.63286-.67777-1.17126-.77377-1.61225 .81309-.74653 1.63118-1.46857 2.4583-2.16003 .58031-.16286 1.36355-.233 2.34741-.19857-.16056.36044-.31875.72449-.47504,1.09183l-.17608.0909c-.9319-.11014-1.79204-.0288-2.57707.24985-.0776.26624-.057.53719.0618.81103s.29622.58945.53307.94616c.15205.22911.37563.51331.67165.85202 .35903.0553.72824.10409 1.10754.14683l1.13115.12339c.18301-.0986.35135-.20121.50507-.3079 .15985-.10873.31957-.22236.47918-.34077l.65767-.50076 .27979.11921c-.81372.72808-1.62237,1.49121-2.42905,2.28303-.47296-.0311-.91114-.0702-1.31436-.11881-.40544-.0519-.91161-.12559-1.51801-.21889"/>
    <path d="m622.43495,200.17978c-.62055-.96065-1.22816-1.92387-1.82262-2.88963-.56057.13344-1.12071.27689-1.68032.42965 .15889-.18455.31851-.36722.47898-.54792 .3399-.0872.68004-.17096 1.02038-.25096-.0859-.13555-.20618-.33722-.36006-.60504s-.27115-.46816-.35352-.60079c-.12857-.20701-.23192-.36255-.31025-.4666 .53553-.42625 1.07888-.83458 1.63232-1.22262l.041-.0286 .33719.0867-.22504.20009-.16174.14704c-.16145.16763.13548.88948.92814,2.15628l.56812-.11057c.49379-.0896.98672-.17009 1.4787-.24114-.11952.1455-.23829.29262-.35644.44134l-.90055.15477-.58509.1153c.7574,1.20208 1.2658,1.95135 1.49184,2.25261l.64176.1317 .0664.0131c.21815.0434.42394.0783.61741.10446 .21727.0246.39359.0256.52926.003l.11392-.0298c.33048-.168.66008-.32926.98904-.48356l.21245.20364c-.58506.39265-1.1706.81276-1.75951,1.25869l-.18778.14857c-.81285-.13428-1.62757-.25714-2.44406-.36924"/>
    <path d="m588.21543,238.42792c-1.631.97544-3.03065,1.23705-4.10487.81962-1.07601-.42119-1.67557-1.31566-2.17932-2.45584-.19159-.43363-.34632-.8386-.46792-1.2176s-.19079-.73471-.19158-1.08254c.22907-.60033.5353-1.28699.96563-2.03209 .14629-.006.29656-.0147.45077-.0247 .21937-.37455.46689-.76119.74642-1.15736l.41647-.66408 .2432.0199c-.2698.58328-.32799,1.02675-.17778,1.34459 .0169.0364.0367.0712.0595.1043 .0365.053.0791.10907.12784.16803 .24803.30195.652.681 1.21739,1.13152 .62825-.93254 1.11199-1.86102 1.45856-2.76031-.86796.24495-1.57528.23179-2.13516-.0137l.58166-1.35566c.34585.1321.71691.19836 1.11454.19644 .39518-.005.7551-.11897 1.07998-.34085 .21827-.14905.37156-.33885.45929-.56819l.2362.16779c-.51852,1.13351-1.01489,2.24747-1.50755,3.3387 .11454-.0853.29391-.20853.53933-.37226 .90657-.60476 1.64903-.92996 2.21115-.93994 .37824-.0159.72606.0214 1.04235.1137s.5661.24094.73279.45853c.30258.39504.46492.87118.48631,1.42941 .0188.55491-.0848,1.13239-.31315,1.73025-.87162,1.45979-1.43006,2.38626-1.65795,2.81381-.3705.39573-.8187.76287-1.34307,1.09344l-.091.0551zm-3.25355-.42897c.35059.0564.72796.0668 1.13308.0291s.82773-.14019 1.25763-.28572c.13861-.0483.27611-.10159.41238-.15961 .27677-.12229.54332-.26506.79897-.42761 .64099-.40757 1.13455-.88294 1.47729-1.41063s.51642-1.0594.5315-1.57913-.13375-.9828-.44306-1.39055c-.18918-.24935-.42564-.41693-.70862-.50419s-.59201-.11343-.94136-.0703c-.34428.0397-.69461.13305-1.05075.27828-.35865.14182-.71174.3254-1.05985.54932-.27351.17596-.53382.37098-.78171.58501 .0558.0601.12252.14585.19999.25734 .25177.36237.34705.7254.28261,1.0881-.007.0396-.0145.0791-.0239.11859-.0862.3166-.26176.6269-.51475.92314-.2794.33006-.64451.6729-1.07085,1.00237-.10619-.015-.21093-.0309-.31415-.0477 .32248-.29748.53258-.62891.60409-.97002 .0761-.34379.0149-.67171-.18895-.97972-.10782-.16285-.22626-.30719-.35454-.43343s-.29599-.2932-.50793-.48309c-.34037-.28143-.59072-.55131-.75921-.80586-.12636-.1909-.21458-.38973-.26381-.59693-.6005.53418-.80875,1.01089-.80208,1.51042s.19073,1.05074.53237,1.67562c.2917.53353.62262,1.00087 1.03199,1.38454s.90793.64046 1.52361.74272z" fill="#a00"/>
    <path d="m595.29797,232.38105c.23259-.6667-.11465-1.56091-1.01213-2.70486-.50694-.64614-1.056-.94758-1.65599-.90018l-.47778.65817-.32619.0703 1.12331-2.19024c.51801.0214.93519.003 1.25058-.0525l.54624.71007c.43503.56132.77953,1.049 1.02938,1.46621 .25511.41342.43876.85292.54998,1.31982l1.96912-.70074 .21905-.32009 .8649-1.24109c-.32812-.47909-.71247-.99152-1.1506-1.53936-.44592-.55755-.89724-1.101-1.35456-1.63028l1.05757-1.415 .16677-.01c.53781,1.05157 1.07435,1.8983 1.59667,2.54554 .75098.93062 1.37509,1.21946 1.8509.8839 .10272-.0724.34004-.34367.7153-.81155l.22846.0735c-.17699.33424-.3753.73483-.59349,1.2023-.2128.46365-.39504.88015-.54796,1.24894l-.15321.0791c-.48699-.17569-1.02455-.28268-1.61302-.32086-.32162.43914-.5957.84859-.82292,1.22791-.27808.46995-.48573.89429-.62284,1.27186-.0575.13489-.11538.22363-.17368.26613s-.14602.0754-.26308.0987c-.48695.0912-.91443.18514-1.28325.28267-.37149.0943-.74382.23808-1.11754.43171"/>
    <path d="m604.62895,225.50798c-.76766-.95022-1.51907-1.91112-2.25428-2.88267-.4971.3348-.99205.67115-1.48508,1.00867l.34552-.78578 .90175-.60897c-.10538-.13572-.25503-.34004-.44801-.61355s-.33905-.47768-.44008-.61139c-.1577-.2087-.28219-.36354-.37387-.46427 .42212-.69742.85026-1.39224 1.2848-2.08379 .10844-.005.21694-.01.32551-.0145l-.2807.56602c-.1134.2626.3032,1.04424 1.28987,2.31733 .60498-.39931 1.21344-.79587 1.82581-1.18897l-.23879.68891-1.32574.8684c.94167,1.20547 1.56554,1.94105 1.83673,2.22957l.63113-.0616c.23646-.0255.45721-.0597.6622-.10262 .20793-.0497.3732-.11477.49573-.19513 .0446-.0292.0782-.0561.10085-.0806 .27639-.33592.55461-.67052.83478-1.00371l.2413.16933c-.52752.82506-1.04389,1.65626-1.55041,2.49289l-2.37908.35656"/>
    <path d="m609.56191,221.92206c-.34794-.2908-.66905-.61985-.96249-.98764-.41486-.51996-.77475-1.13388-1.07574-1.84233 .45074-.59528.90766-1.1866 1.37108-1.77344 .25033-.31923.50236-.6364.75608-.95135 .46305.0361.9332.0423 1.41055.0198 .48081-.029.98858-.0772 1.52385-.14316-.8356,1.44669-1.46349,2.58212-1.91887,3.3679-.16592.28465-.30876.52344-.4297.71586 .0529.0665.13631.14979.25033.24968 .31213-.008.61298-.0263.9025-.0557 .5464-.0558 1.05234-.14959 1.51772-.28143 .10977-.064.18862-.11891.23641-.16505l1.17609-1.22986 .21162.1083c-.70754,1.03167-1.39989,1.99211-2.08422,2.87295l-.00077.00099c-1.30102.089-2.25991.12616-2.88442.0944m.30084-2.00156c.18117-.24053.34995-.46956.50605-.68734 .48884-.68592.85148-1.25799 1.08078-1.7243-.82162.14956-1.55361.24453-2.1986.27849-.11431.006-.22588.01-.33473.0119-.19724.11808-.1665.40878.0959.86922 .26822.45694.55211.87418.85056,1.25204z"/>
    <path d="m617.12027,218.14074c-.16687-.42518-.51044-.97217-1.02634-1.6437-.29585-.3851-.71558-.89079-1.25498-1.51907l-.62148-.0154c-.15799.17645-.31536.35384-.47213.53215l-.34451.007c.41083-.63158.8282-1.25494 1.25183-1.86909 .19634.009.45448.007.77493-.007 .16957-.006.35634-.0144.5603-.0258l.42267.56575c.63544-.77156 1.27614-1.52824 1.91923-2.26875 .85641-.0528 1.71304-.16307 2.57014-.32583 .19647.40348.56345.96532 1.10569,1.68245 .15914.19965.33025.41503.51398.64583l.41319.52545 .31938.0871c.16549.0486.30622.0805.42211.0958 .11957.01.23148-.006.33571-.0472 .0245-.01.0707-.0484.1385-.11588 .16511-.14855.3304-.29604.49585-.44247l.17827.16962c-.48464.62935-.96718,1.27161-1.44498,1.92619-.55429-.12542-1.10756-.24893-1.66019-.37074-.1318-.35006-.40418-.79426-.81492-1.33456s-.8358-1.04551-1.28292-1.52502c-.53534.0606-1.19386.22933-1.97509.51589-.34754.34305-.69425.69001-1.03982,1.04069 .50872.6765 1.02207,1.35089 1.54006,2.02318 .11972.15539.21068.23564.27259.24091l1.12385.18974c-.26015.36989-.51828.74315-.77387,1.11977l-.24614.36885c-.43108-.11478-.89822-.19058-1.40091-.22559z"/>
    <path d="m626.82532,213.65048c-.11417-.31875-.2953-.66378-.54244-1.03582s-.56776-.81623-.95972-1.33351c-.38957-.51412-.73625-.9657-1.04119-1.35417s-.60442-.77698-.90945-1.14977l-.78909-.953 .2929-.14857 .86142.63094 .11861-.0873c.546-.53083 1.09127-1.04685 1.63552-1.54639l.40665.026-.3719.41578c-.34902.39454-.47184.79605-.36628,1.19325s.33887.83854.70225,1.32211c.13538.18015.3042.37896.50695.59628l.10993-.006c.72708-.82035 1.34452-1.41505 1.8538-1.81205 .83322.0246 1.68513.0338 2.55589.0327h1e-005l.0817.00049c.33741.39681.586.69378.74208.89142 .33596.42546.62055.8342.85194,1.22686 .19584.33161.35401.65186.47338.9612-1.20414.91245-2.33301,1.73547-3.37073,2.41805l-.88403-.0825-.95809-.0851-1-.12105m1.34236-1.08395 .84305.11562c.37872.0504.73195.0835 1.05923.0992s.57879-.00048.75354-.0497c.32453-.0915.53182-.25059.6209-.47953 .0953-.23061.10849-.45329.0403-.67-.0885-.29839-.28784-.64157-.59503-1.03059-.3592-.4549-.69407-.8366-1.00646-1.1446-.32489-.0102-.94381.009-1.85471.0797-.63024.38989-1.11387.74872-1.44968,1.06081 .52449.67489 1.05412,1.34793 1.58893,2.01914"/>
    <path d="m636.35976,211.02088c-.36477-.31922-.6971-.65913-.99774-1.01966-.42503-.50972-.78644-1.07324-1.08545-1.68732 .52203-.32517 1.03595-.62974 1.54051-.91244 .21557-.12942.4297-.25634.64233-.38073 .46818.17504.94403.33126 1.42674.46995 .48584.13517.99892.26601 1.53932.39442-.69472.70441-1.29216,1.29023-1.75191,1.71037-.21152.18427-.39476.33797-.54749.45676 .0559.0648.14423.15129.26551.25933 .40514.11054.79391.20574 1.16552.28559 .51225.10766.99247.18478 1.43767.23163 .11704-.0111.20064-.0254.25076-.0431 .40597-.17263.80715-.33783 1.20296-.49594l.23721.1455c-.65384.47568-1.34827.92097-2.06748,1.33235l-.10705.0595c-1.43718-.34013-2.47707-.59833-3.15139-.80613m.37165-1.38107c.2341-.14193.44552-.27438.63481-.39891 .45212-.31341.7745-.58507.97464-.82693-.76096-.14273-1.44744-.29139-2.05997-.45226l-.53915-.15302c-.2038.0208-.17254.24036.10041.65638 .27902.41532.57545.80711.88926,1.17474z"/>
    <path d="m644.40174,210.4441c-.372-.46451-.71034-.85066-1.01902-1.15921-.2231-.22301-.5255-.51589-.8989-.87804s-.59921-.56057-.69026-.59605c-.0142-.003-.0384-.0163-.0726-.0404s-.0626-.0391-.0852-.0448c-.10491-.032-.19123-.0565-.25914-.0736l-.41528-.12022c-.17471.0564-.35056.11419-.52751.17345l-.28024-.0736c.19817-.22103.35848-.3933.4844-.52101 .12317-.13073.27875-.26675.46503-.40591 .62892.22619 1.17903.41643 1.64596.56832l.27885.29074c.35738-.2648.70247-.51688 1.03532-.75473 .23713.13161.45525.24574.65305.34224 .50079.23958.87295.3676 1.10233.38145 .0651.004.13752-.007.21715-.0326 .0851-.0251.13956-.0377.16358-.0387l.153.13228c-.0412.0471-.11167.11465-.21156.20483s-.16657.1529-.20661.19403c-.0325.0441-.12809.0679-.28653.0728l-.17236-.004c-.1425-.007-.31291-.0354-.51031-.0843s-.38024-.10374-.53909-.15595l-.65775-.21778-.35034.36074c.5711.58176 1.16591,1.16637 1.78444,1.75384 .23255.22087.96838.50802 2.25275.90118l.75455-.20937c.13547-.0381.27037-.0751.40473-.11119l.27336.18652-.35887.20227-1.20764.67363c-.77511-.22314-1.7583-.5333-2.91935-.91699"/>
    <path d="m652.92308,212.82042-.37958-.15336c.38555-.28377.74768-.55598 1.09528-.81354-.79798-.34555-1.57704-.67956-2.33752-1.00327-.57742-.43919-.98223-.76383-1.23698-.98018-.79377-.67411-1.42574-1.30532-1.91531-1.89399 .44339-.21136 1.00652-.40285 1.69064-.53989 .72174.27771 1.53059.54181 2.42094.80737 .26198-.0343.52357-.0617.78486-.0821l.14555.0728c.1929.30593 1.13732,1.18519 3.27549,2.83547 .15212.11741.39363.28432.73027.50349l1.19366.75431c.46077.28466.80515.49844 1.02283.63594-.0169.23326-.0588.45934-.13046.67652-.0606.22213-.16461.41866-.31605.58797l-.60227-.0584c-1.15488-.22263-2.87159-.73583-4.98501-1.4549l-.4563.10576m1.2167-.58909c1.69235.66897 3.03283,1.11772 3.90675,1.29301 .49395.0991.74163.10024.744-.005s-.18091-.2927-.53885-.55883c-.18596-.13826-1.06101-.70282-2.47868-1.62906-.34887.13663-.65788.28191-.92548.42758-.26153.14669-.49746.30528-.70774.47243zm-2.05104-1.77549c.30799.13522.62382.27015.94744.40513l1.22942.50616c.37202-.12655.73696-.24152 1.09704-.34399-1.00003-.77899-1.85493-1.50131-2.58054-2.17-1.12823-.28634-2.24837-.57583-3.34625-.87785 .0216.13884.11237.30087.27523.48522 .16501.18208.39996.40547.71131.67178 .601.51405 1.16318.9574 1.66635,1.32355z"/>
   </g>
  </g>
  <path transform="matrix(.54464 -.8955 .87486 .5702 -104.43 360.08)" d="m277.79 265.83c0 27.964-4.1269 50.634-9.2176 50.634s-9.2176-22.67-9.2176-50.634 4.1269-50.634 9.2176-50.634 9.2176 22.67 9.2176 50.634z" fill="url(#h)" stroke="#000"/>
  <path d="m270.72 202.82-200.52 197.48c20.98 33.314 113.66 62.637 182.33 42.931l87.378-192.94z" fill="url(#g)"/>
  <path d="m230.09 242.26c12.794-16.975 51.148-54.709 62.336-56.795 23.596-4.401 25.689-15.021 29.318-16.138 12.664-3.8973 28.312 5.5336 29.137 19.733 0.33669 5.7986-9.8017 8.7975-5.036 29.766 2.9686 13.061-11.981 56.712-26.895 80.952-2.6243-13.174-69.224-62.486-88.859-57.517z" fill="url(#f)" stroke="#000" stroke-linecap="round" stroke-linejoin="round"/>
  <path transform="translate(86.875 161.41)" d="m351.79 214.16c1.0813-2.2635 7.531-1.9652 8.0812 0v4.8388c-2.7156 1.0634-5.518 1.188-8.0812 0z" fill="url(#e)" stroke="#000" stroke-linecap="round" stroke-linejoin="round" stroke-width=".25"/>
  <path transform="translate(86.875 161.41)" d="m351.79 214.16c-0.0697 2.6779 7.8318 3.072 8.0812 0v6.8388c-1.6423 2.8312-6.907 2.1351-8.0812 0z" fill="url(#d)" stroke="#000" stroke-linecap="round" stroke-linejoin="round" stroke-width=".25"/>
 </g>
</svg>
